<?xml version="1.0" encoding="utf-8"?>
<!-- Generator: Adobe Illustrator 22.0.1, SVG Export Plug-In . SVG Version: 6.00 Build 0)  -->
<svg version="1.1" xmlns="http://www.w3.org/2000/svg" xmlns:xlink="http://www.w3.org/1999/xlink" x="0px" y="0px"
	 viewBox="0 0 500 500" style="enable-background:new 0 0 500 500;" xml:space="preserve">
<style type="text/css">
	.st0{display:none;}
	.st1{display:inline;fill:#F5DBBF;}
	.st2{fill:#FFEEDB;}
	.st3{fill:#CFB091;}
	.st4{fill:#8DC63F;}
	.st5{fill:#7CB332;}
	.st6{fill:#1C75BC;}
	.st7{fill:#155F99;}
	.st8{fill:#808285;}
	.st9{fill:#BCBEC0;}
	.st10{fill:#D1D3D4;}
	.st11{fill:#519BD6;}
	.st12{fill:#FFFFFF;}
	.st13{fill:#E6E7E8;}
	.st14{fill:#39B54A;}
	.st15{fill:#092942;}
	.st16{fill:#FBB040;}
	.st17{fill:#F98C6E;}
	.st18{fill:#9C681C;}
	.st19{opacity:0.25;fill:#231F20;}
	.st20{fill:#E67A5C;}
	.st21{fill:#051D2E;}
	.st22{fill:#0E4066;}
	.st23{fill:#D1684B;}
	.st24{fill:#92C6F0;}
	.st25{fill:#A6D7FF;}
</style>
<g id="BACKGROUND" class="st0">
	<rect x="0.9" y="0.5" class="st1" width="499.1" height="499.1"/>
</g>
<g id="OBJECTS">
	<g>
		<path class="st2" d="M387.4,347.7c27.3-31.7,43.7-72.9,43.7-118c0-100-81.1-181.1-181.1-181.1S68.9,129.6,68.9,229.7
			c0,45.1,16.5,86.3,43.7,118H387.4z"/>
		<g>
			<g>
				<ellipse class="st3" cx="142.7" cy="401.4" rx="37.1" ry="8.4"/>
				<path class="st3" d="M378.5,409.6c-7.7,0-15.1,0.2-21.8,0.6c4.7-1.3,7.4-2.8,7.4-4.4c0-5.1-27.1-9.2-60.6-9.2
					c-33.5,0-60.6,4.1-60.6,9.2c0,5.1,27.1,9.2,60.6,9.2c8.6,0,16.8-0.3,24.2-0.8c-3.7,1.1-5.7,2.4-5.7,3.7c0,4.6,25.4,8.4,56.7,8.4
					c31.3,0,56.7-3.7,56.7-8.4C435.2,413.3,409.8,409.6,378.5,409.6z"/>
				<path class="st3" d="M215,414.3c-1.1,0-2.2,0-3.3,0c2.2-1,3.3-2.1,3.3-3.2c0-4.9-23-9-51.3-9c-28.3,0-51.3,4-51.3,9
					c0,4.9,22.8,8.9,50.9,9c-5.1,1.7-8,3.7-8,5.8c0,6.4,26.7,11.6,59.7,11.6c33,0,59.7-5.2,59.7-11.6
					C274.7,419.5,248,414.3,215,414.3z"/>
				<ellipse class="st3" cx="421.5" cy="401.2" rx="12.3" ry="3.4"/>
				<path class="st3" d="M401.1,395.2c0,0.8-2.5,1.4-5.5,1.4c-3,0-5.5-0.6-5.5-1.4c0-0.8,2.5-1.4,5.5-1.4
					C398.6,393.9,401.1,394.5,401.1,395.2z"/>
				<ellipse class="st3" cx="227.1" cy="397.6" rx="6.1" ry="1.8"/>
				<path class="st3" d="M254.8,391.6c0,0.7-1.7,1.3-3.8,1.3c-2.1,0-3.8-0.6-3.8-1.3c0-0.7,1.7-1.3,3.8-1.3
					C253,390.3,254.8,390.9,254.8,391.6z"/>
			</g>
		</g>
		<g>
			<path class="st4" d="M105.6,392c-5.9-16.8-11.8-33.7-21.1-48.9c-9.3-15.2-22.3-28.7-38.7-35.4c5.6,21.4,11.2,43.9,25.6,60.6
				C80.7,379,92.9,385.7,105.6,392z"/>
			<path class="st5" d="M99.7,378.2c-3.7-7-7.6-13.9-11.6-20.6c-2.3-3.7-4.6-7.4-7-11.1c-5.2-7.8-11.2-15.5-19.4-20
				c3.3,8.7,6.6,17.3,10.2,25.9c2.9,6.7,6,13.3,10.3,19.2c3.5,4.8,7.8,9,12.4,12.8c2.3,1.9,4.7,3.8,7.1,5.5c0,0,0.1,0.1,0.1,0.1
				c1.3,0.7,2.6,1.3,3.9,2c-1-2.8-1.9-5.5-2.9-8.3C101.7,381.9,100.7,380,99.7,378.2z"/>
		</g>
		<g>
			<path class="st4" d="M99.3,387.8c-8.6-7.7-17.2-15.5-27.2-21.2c-10-5.7-21.6-9.4-33-8.1c9.8,10.4,20,21.5,33.4,26.4
				C81.1,388.1,90.1,388.1,99.3,387.8z"/>
			<path class="st5" d="M91.6,381.7c-4.3-2.8-8.6-5.5-13-8.1c-2.4-1.4-4.9-2.8-7.4-4.1c-5.4-2.8-11.2-5.4-17.3-5.3
				c4.6,3.9,9.1,7.8,13.9,11.5c3.7,2.9,7.5,5.7,11.8,7.7c3.5,1.6,7.2,2.7,11,3.4c1.9,0.4,3.8,0.7,5.8,0.9c0,0,0.1,0,0.1,0
				c0.9,0,1.9,0,2.8-0.1c-1.4-1.3-2.8-2.5-4.2-3.8C93.9,383.2,92.8,382.5,91.6,381.7z"/>
		</g>
		<g>
			<path class="st4" d="M94.2,350c-0.4-11.5-0.9-23.1-3.7-34.3s-8.3-22-17.2-29.3c-0.6,14.3-1.5,29.3,4.3,42.4
				C81.3,337.2,87.6,343.6,94.2,350z"/>
			<path class="st5" d="M93.3,340.3c-1-5-2-10-3.3-15c-0.7-2.8-1.4-5.5-2.2-8.2c-1.7-5.8-3.9-11.8-8.2-16.1c0.4,6,0.8,12,1.4,18
				c0.5,4.7,1.1,9.4,2.7,13.8c1.3,3.7,3.1,7.1,5.2,10.3c1.1,1.6,2.2,3.2,3.3,4.8c0,0,0,0,0,0.1c0.7,0.7,1.4,1.3,2,2
				c-0.1-1.9-0.1-3.8-0.2-5.7C93.8,343,93.5,341.6,93.3,340.3z"/>
		</g>
		<g>
			<path class="st4" d="M296.5,369.2c6.9-9.2,13.8-18.6,18.6-29.1c4.8-10.5,7.3-22.4,4.9-33.6c-9.4,10.8-19.5,21.9-23.2,35.7
				C294.4,351.1,295.3,360.1,296.5,369.2z"/>
			<path class="st5" d="M301.8,361c2.4-4.5,4.7-9.1,6.8-13.7c1.2-2.6,2.3-5.2,3.4-7.8c2.3-5.6,4.3-11.6,3.6-17.7
				c-3.5,4.9-6.9,9.8-10.2,14.9c-2.5,4-5,8-6.6,12.5c-1.3,3.6-2,7.5-2.4,11.3c-0.2,1.9-0.3,3.9-0.4,5.8c0,0,0,0.1,0,0.1
				c0.1,0.9,0.2,1.9,0.3,2.8c1.1-1.5,2.3-3,3.4-4.6C300.5,363.4,301.1,362.2,301.8,361z"/>
		</g>
		<g>
			<path class="st4" d="M301.5,345.8c3.5-9.3,7-18.7,8.5-28.5c1.5-9.8,0.7-20.2-3.9-29c-5.2,11.2-10.9,22.8-10.7,35.1
				C295.5,331.3,298.4,338.6,301.5,345.8z"/>
			<path class="st5" d="M303.9,337.8c0.9-4.3,1.7-8.6,2.4-13c0.4-2.4,0.7-4.8,0.9-7.3c0.6-5.2,0.8-10.6-1.2-15.5
				c-1.7,4.9-3.4,9.8-4.9,14.7c-1.2,3.9-2.2,7.8-2.5,11.9c-0.2,3.3,0.1,6.7,0.7,9.9c0.3,1.6,0.7,3.3,1.1,4.9c0,0,0,0,0,0.1
				c0.3,0.8,0.6,1.5,1,2.3c0.6-1.5,1.1-3,1.7-4.6C303.5,340.1,303.7,338.9,303.9,337.8z"/>
		</g>
		<path class="st6" d="M300.9,149.8c-7.3-9.7-17-17.7-28-23c-2.1,28.2-3.2,56.6-2.6,84.9c7.6-4,15-8.3,21.4-14.1
			c6.3-5.8,11.6-13,13.7-21.3C307.8,166.8,306.1,156.7,300.9,149.8z"/>
		<path class="st7" d="M274.3,127.6c-0.8,0.9-1.4,2-1.7,3.2c0,0,0,0,0,0.1c-0.2,3.2-0.4,6.4-0.6,9.6c-0.1,11.2-0.2,22.4-0.3,33.6
			c0,5.7-0.1,11.5,2,16.8c1,2.6,2.5,4.9,4.2,7.1c1,1.2,3.4,5.2,5.4,4.7c1.7-0.4,2.3-6,2.8-7.6c0.9-3.1,2-6.1,3.1-9.2
			c0.6-1.6,1.2-3.2,1.3-4.9c0-1.6-0.5-3.2-1-4.8c-3-9-5.9-18.1-6.8-27.5c-0.5-5.4-0.3-10.8,0-16.2
			C280.1,130.7,277.2,129.1,274.3,127.6z"/>
		<g>
			<path class="st8" d="M130.4,72.7c0,0-9.4-0.8-18.1,12.5c22.5-5.1,34.6-0.9,34.6-0.9S140.5,72.1,130.4,72.7z"/>
			<path class="st9" d="M189,74.2c-3.9-4.6-7.2-9.7-9.9-15.1c4-3.6,4.4-10.6,2.8-15.8c-1.6-5.1-5.9-9.2-10.9-11.2s-10.7-2-15.9-0.6
				c-6.3,1.6-12.4,5.6-14.9,11.6c-2.5,6-0.3,14.1,5.6,16.8c-2.9,8-6.9,15.9-12.4,22.4c15.7,0.1,31.5,0.3,47.2-0.2
				c2.6-0.1,5.3-0.2,7.4-1.6C190.3,79.1,190.7,76.2,189,74.2z M170.6,52.5c-2.9,2-6.7,2.3-10,1c-1.9-0.8-3.7-2.1-4.5-4
				c-0.8-1.8-0.8-3.9-0.2-5.7c0.6-2,1.8-3.7,3.4-4.9c2.1-1.7,13-4.6,15.5,4.3C175.7,46.7,173.5,50.5,170.6,52.5z"/>
			<path class="st10" d="M146.7,82.5c2.1-7.7,4.8-15.2,8.3-22.4c-6.1-1.9-10.6-7.9-10.8-14.3c-0.1-4.9,2.5-9.7,6.4-12.6
				c-4.5,2.1-8.4,5.4-10.3,10c-2.5,6-0.3,14.1,5.6,16.8c-2.9,8-6.9,15.9-12.4,22.4C138,82.4,142.3,82.4,146.7,82.5z"/>
			<g>
				<polygon class="st6" points="72.4,77.7 275.5,77.7 301.4,373.7 100.9,397.8 				"/>
				<path class="st7" d="M223.4,108.6c0,0,18.3-6.8,12.4-30.9h-25.4L223.4,108.6z"/>
				<polygon class="st11" points="72.4,77.7 64.8,83.3 93.4,394.9 100.9,397.8 				"/>
				<path class="st7" d="M301.4,373.7l-17.9-204l-14.3-79.5L89.7,86.6c0,0-1.9,233.7,34.7,308.4L301.4,373.7z"/>
			</g>
			<path class="st12" d="M93.2,92.4c60.4-1.1,120.7-2.2,181.1-3.2c6,89.2,16.5,178,33.8,265.7c-60.3,1.8-120.8,10.3-180,21.6
				C111.6,316.4,93.2,145.6,93.2,92.4z"/>
			<path class="st13" d="M215.6,90.2l7.8,18.5c0,0,12-4.4,13.4-18.8C229.7,89.9,222.7,90,215.6,90.2z"/>
			<path class="st8" d="M149.8,75c12.8-0.6,25.6-1.2,38.4-1.7c-2.5-3.1-4.8-6.3-6.7-9.7c-4.4,0.3-8.7,1.3-12.9,2.6
				C162,68.3,155.8,71.5,149.8,75z"/>
			<g>
				<path class="st9" d="M140.3,108.6l83.1,0.1c4.4-9.5,2.5-20.9-1-31.1c-1.1-3.4-4.1-5.8-7.7-6.1c-27-2.5-54.6-2.7-84.3,1.3
					C139.6,77.6,141.1,95.2,140.3,108.6z"/>
				<path class="st10" d="M224.6,85.3l-85.9,0.2c1.3,5,1.8,10.7,1.8,16.2l85.1-0.4C226.3,96.2,225.8,90.7,224.6,85.3z"/>
				<path class="st10" d="M178.2,71.5c-5.1,0.1-10.3,0.4-14.9,2.5c-0.8,0.4-1.8,1-1.6,1.9c0.1,0.8,1,1.1,1.8,1.3
					c11.7,3.1,23.9,2.9,35.9,2c2.4-0.2,14.4,0.2,13.9-3c-0.7-4.3-11.2-3.8-14.1-4C192.1,71.6,185.1,71.4,178.2,71.5z"/>
				<ellipse class="st10" cx="152.2" cy="76" rx="5.8" ry="2.3"/>
			</g>
			<g>
				<path class="st9" d="M266.8,174.8l-32.9,1.7l-6.3-39.9l32.9-1.7L266.8,174.8z M237.3,172.2l24.9-1.3l-5-31.9l-24.9,1.3
					L237.3,172.2z"/>
			</g>
			<g>
				<path class="st9" d="M276.8,244.3l-32.9,1.5l-6.1-39.9l32.9-1.5L276.8,244.3z M247.3,241.7l24.9-1.1l-4.9-32l-24.9,1.1
					L247.3,241.7z"/>
			</g>
			<g>
				<path class="st9" d="M256.8,315.7l-6.8-39.8l32.9-2.1l6.8,39.8L256.8,315.7z M254.7,279.6l5.5,31.9l24.8-1.6l-5.5-31.9
					L254.7,279.6z"/>
			</g>
			<g>
				<g>
					<path class="st8" d="M112.3,159c-1.3,0-2.5-1.1-2.5-2.4c0-1.4,1-2.5,2.4-2.6l103.6-3.3c1.4,0,2.5,1,2.6,2.4
						c0,1.4-1,2.5-2.4,2.6L112.3,159C112.4,159,112.4,159,112.3,159z"/>
				</g>
				<g>
					<path class="st8" d="M114.3,169.5c-1.3,0-2.5-1.1-2.5-2.4c0-1.4,1-2.5,2.4-2.6l103.6-3.3c1.4,0,2.5,1,2.6,2.4
						c0,1.4-1,2.5-2.4,2.6L114.3,169.5C114.4,169.5,114.4,169.5,114.3,169.5z"/>
				</g>
				<g>
					<path class="st8" d="M116.3,180c-1.3,0-2.5-1.1-2.5-2.4c0-1.4,1-2.5,2.4-2.6l51.8-1.7c1.4,0,2.5,1,2.6,2.4c0,1.4-1,2.5-2.4,2.6
						L116.3,180C116.4,180,116.4,180,116.3,180z"/>
				</g>
				<g>
					<path class="st4" d="M110,148.6c-1.3,0-2.5-1.1-2.5-2.4c0-1.4,1-2.5,2.4-2.6l51.8-1.7c1.4,0,2.5,1,2.6,2.4c0,1.4-1,2.5-2.4,2.6
						L110,148.6C110.1,148.6,110.1,148.6,110,148.6z"/>
				</g>
			</g>
			<g>
				<g>
					<path class="st8" d="M126.3,234.1c-1.3,0-2.4-1-2.5-2.3c-0.1-1.4,0.9-2.6,2.3-2.7l103.2-9.7c1.4-0.1,2.6,0.9,2.7,2.3
						c0.1,1.4-0.9,2.6-2.3,2.7L126.6,234C126.5,234.1,126.4,234.1,126.3,234.1z"/>
				</g>
				<g>
					<path class="st8" d="M129,244.4c-1.3,0-2.4-1-2.5-2.3c-0.1-1.4,0.9-2.6,2.3-2.7l103.2-9.7c1.4-0.1,2.6,0.9,2.7,2.3
						c0.1,1.4-0.9,2.6-2.3,2.7l-103.2,9.7C129.2,244.4,129.1,244.4,129,244.4z"/>
				</g>
				<g>
					<path class="st8" d="M131.6,254.7c-1.3,0-2.4-1-2.5-2.3c-0.1-1.4,0.9-2.6,2.3-2.7l51.6-4.9c1.4-0.1,2.6,0.9,2.7,2.3
						c0.1,1.4-0.9,2.6-2.3,2.7l-51.6,4.9C131.8,254.7,131.7,254.7,131.6,254.7z"/>
				</g>
				<g>
					<path class="st4" d="M123.4,223.8c-1.3,0-2.4-1-2.5-2.3c-0.1-1.4,0.9-2.6,2.3-2.7l51.6-4.9c1.4-0.1,2.6,0.9,2.7,2.3
						c0.1,1.4-0.9,2.6-2.3,2.7l-51.6,4.9C123.6,223.8,123.5,223.8,123.4,223.8z"/>
				</g>
			</g>
			<g>
				<g>
					<path class="st8" d="M138.6,307.2c-1.3,0-2.3-0.9-2.5-2.2c-0.2-1.4,0.8-2.6,2.2-2.8l103-11.4c1.4-0.2,2.6,0.8,2.8,2.2
						c0.2,1.4-0.8,2.6-2.2,2.8l-103,11.4C138.8,307.2,138.7,307.2,138.6,307.2z"/>
				</g>
				<g>
					<path class="st8" d="M141.4,317.5c-1.3,0-2.3-0.9-2.5-2.2c-0.2-1.4,0.8-2.6,2.2-2.8l103-11.4c1.4-0.2,2.6,0.8,2.8,2.2
						c0.2,1.4-0.8,2.6-2.2,2.8l-103,11.4C141.6,317.5,141.5,317.5,141.4,317.5z"/>
				</g>
				<g>
					<path class="st8" d="M144.2,327.8c-1.3,0-2.3-0.9-2.5-2.2c-0.2-1.4,0.8-2.6,2.2-2.8l51.5-5.7c1.4-0.2,2.6,0.8,2.8,2.2
						c0.2,1.4-0.8,2.6-2.2,2.8l-51.5,5.7C144.4,327.8,144.3,327.8,144.2,327.8z"/>
				</g>
				<g>
					<path class="st4" d="M135.5,297c-1.3,0-2.3-0.9-2.5-2.2c-0.2-1.4,0.8-2.6,2.2-2.8l51.5-5.7c1.4-0.2,2.6,0.8,2.8,2.2
						c0.2,1.4-0.8,2.6-2.2,2.8l-51.5,5.7C135.7,297,135.6,297,135.5,297z"/>
				</g>
			</g>
			<path class="st14" d="M226,140.6c7.1,2.3,13.8,5.5,19.2,11.2c7-9,13.4-17.2,23.3-24.3c-9.4,11.4-16.7,23.9-21.6,37.1
				C242.2,155.8,234.9,147.1,226,140.6z"/>
			<path class="st14" d="M236.1,213.3c7.1,2.3,13.8,5.5,19.2,11.2c7-9,13.4-17.2,23.3-24.3c-9.4,11.4-16.7,23.9-21.6,37.1
				C252.3,228.5,245,219.9,236.1,213.3z"/>
			<path class="st14" d="M248.6,281.3c7.1,2.3,13.8,5.5,19.2,11.2c7-9,13.4-17.2,23.3-24.3c-9.4,11.4-16.7,23.9-21.6,37.1
				C264.9,296.5,257.6,287.9,248.6,281.3z"/>
		</g>
		<g>
			<path class="st12" d="M309.6,387.8c-6.7,3.2-13.3,6.5-20,9.7c-0.8,0.4-1.7,1-1.6,1.8c0.1,1.1,1.5,1.4,2.5,1.4
				c9.4,0.3,18.8,0.7,28.3,1v-11.5C315.9,389.8,312.4,388.9,309.6,387.8z"/>
			<path class="st12" d="M376.7,406.3c-1.9,3.8-10.7,7.4-16.5,10.2c-0.7,0.3-1.5,0.8-1.4,1.6c0.1,0.9,1.3,1.2,2.2,1.2
				c5.9,0.2,15.2,0.4,23.1,0.6c3.7,0.1,6.1-3.7,4.5-7l-4.5-9.8C381.5,402.7,379.1,407.2,376.7,406.3z"/>
			<path class="st15" d="M374.4,231.5c-10.6,3.6-20.9,3.5-30.6,4.8c-1.7,2.4-8.3,12.1-10,14.5c9.2,1.2,18.3,2.3,27.5,3.5
				c1.5,0.2,3,0.4,4.5,0c2.2-0.5,3.9-2.1,5.3-3.8C375.2,245.3,376.3,237.8,374.4,231.5z"/>
			<path class="st15" d="M325.4,217.2c3.6-5.5,8.5-9.2,13.5-8.5c-0.4-0.1-4.3,8.9-4.8,9.9c-1.9,3.2-3.9,6.1-6.1,8.8
				c-2.1,2.6-4.4,4.9-6.8,6.9c-0.7,0.6-2.6,2.8-3.2,1c-0.4-1.1,1.2-4.6,1.6-5.6C321.1,225.2,323,220.8,325.4,217.2z"/>
			<g>
				<g>
					<path class="st16" d="M430.7,165.9L319,264.8l-17.7-20l111.7-98.9c5.5-4.9,14-4.4,18.9,1.1v0
						C436.7,152.6,436.2,161,430.7,165.9z"/>
					<polygon class="st17" points="301.2,244.8 273.6,287.1 319,264.8 					"/>
					
						<rect x="293" y="204.2" transform="matrix(0.7488 -0.6628 0.6628 0.7488 -48.1475 292.0475)" class="st18" width="136.5" height="10.8"/>
					<polygon class="st14" points="283.5,271.9 273.6,287.1 289.8,279.1 					"/>
					<path class="st17" d="M412.9,145.9L401.6,156l17.7,20l11.4-10.1c5.5-4.9,6-13.3,1.1-18.9C426.9,141.5,418.5,141,412.9,145.9z"
						/>
					
						<rect x="402.9" y="154.5" transform="matrix(0.7487 -0.6629 0.6629 0.7487 -8.6844 312.8235)" class="st12" width="10.8" height="26.7"/>
				</g>
				<path class="st19" d="M430.7,165.9c4.5-4,5.7-10.3,3.3-15.5c-0.5-1.2-1.3-2.3-2.2-3.4L273.6,287.1l45.4-22.3L430.7,165.9z"/>
			</g>
			<path class="st20" d="M367.9,223.3c2.6,4.6,2.8,17.2,1.6,22.3c3.9,0.7,8.4-5.6,12.3-4.9c-1.5-4.7-1.9-9.7-1.2-14.5
				c0.2-1.6,0.5-3.4-0.5-4.7c-1.2-1.6-3.8-1.5-5.7-0.7C372.6,221.5,370,223.5,367.9,223.3z"/>
			<path class="st15" d="M351,295.4c0,0-24.7,23-30,41.3c-5.3,18.3-12.9,49.3-12.9,49.3l13.8,2.7L336,345l22.3-23.3
				C358.3,321.7,359.3,298.7,351,295.4z"/>
			<path class="st21" d="M351,295.4c0,0-9.4,8.8-17.9,19.8c1.3,7,3,14,4.5,20.9c0.4,1.9,0.9,3.9,1.4,5.8l19.3-20.2
				C358.3,321.7,359.3,298.7,351,295.4z"/>
			<path class="st22" d="M376.8,300.4c-1.3,3.3-10.6,7.6-14.2,8.2c-3.1,0.6-6.3-0.8-8.4-3c-2.2-2.2-4.3-4.9-4.4-8
				c-0.6-45.1,7.8-54.6,15.4-62.1c6.6-6.6,15.6-5.4,20.7,2.3c5.6,8.5,2.6,20,0.4,29.2C383.2,279.5,381.8,287,376.8,300.4z"/>
			<path class="st15" d="M367.4,283.8c8.7-12.1,13.5-26.9,13.6-41.8c-2.9,7.9-7.6,14.4-13.4,20.5c-0.9,0.9-1.8,1.9-2.9,2.5
				c-3.2,1.9-7.2,1.4-10.7,0.6c-0.8-0.2-1.6-0.4-2.4-0.6c-0.6,4.2-1.1,9-1.4,14.6C355.7,281.4,361.5,282.8,367.4,283.8z"/>
			<path class="st15" d="M372,325.8c3.3-10.2,5.7-15.7,5.3-26.8c-17.1,5.2-27.5-3.6-27.5-3.6c-2.7,24.4-3.3,37.5,0,61.9
				c1.9,14.3,16.4,35.1,24.5,47.4c3.5-0.9,5.1-1.6,8.6-2.5c-3-11.4-8.6-31.9-14.6-42.1C369.8,347.3,367.9,338.2,372,325.8z"/>
			<path class="st17" d="M336.3,210.1c2.8-2.3,8-3.5,11.3-2.1c0.9,0.4,1.7,1,1.8,2c0,1.2-1.3,1.9-2.4,2.3c-3.5,1.2-7.2,1.7-10.9,1.6
				C335,213.5,333.5,212.4,336.3,210.1z"/>
			<path class="st15" d="M360.9,265.5c1.1,0.1,2.2,0.1,3.2-0.3c1.6-0.6,2.5-2.1,3.3-3.6c2.6-4.9,4.4-10.2,5.3-15.7
				c0.5-3.3-0.3-7.1-2.8-9.3c-6.4,5.1-10.7,12.7-11.6,20.8c-1.7,0-3.6-0.1-5.4-0.1c-0.6,2.3-1.1,4.8-1.5,7.6
				C354.7,265.1,357.8,265.3,360.9,265.5z"/>
			<g>
				<path class="st17" d="M324.6,255c-0.9-1.2-2-2.5-3.4-2.9c-1.5-0.5-3.4,0.2-3.7,1.7c-0.5,2.1,2.4,4.1,1.5,6.2
					c-0.2,0.6-0.8,1-1.1,1.6c-0.6,1.1-0.1,2.4,0.7,3.3c0.8,0.9,2,1.4,3.1,1.8c1.6,0.6,3.2,1.2,4.9,1.1c1,0,2.1-0.4,2.8-1.1
					c1.3-1.5-0.2-3.8-0.9-5.3C327.4,259.1,326.1,257,324.6,255z"/>
				<path class="st22" d="M359.7,261.7c3.1-12.3,2.7-15.3,7-23.4c1.4-2.7,4.2-4.6,7-5.7c2.8-1.1,6.3-1,8.6,0.9
					c1.8,1.5,2.7,3.9,2.8,6.3c0.1,2.4-0.4,4.7-1.1,7c-4.7,15.9-7.1,18.1-16.8,31.5c-13.2-1.2-30.7-4-40-8.9c-1.9-1-2-4.2-0.9-6.1
					c1.2-2,4.1-2,6.4-1.6C340.1,263.1,348.5,261.9,359.7,261.7z"/>
			</g>
			<polygon class="st22" points="307.5,383.1 323.7,387.4 321.9,392.9 306.1,388.7 			"/>
			<polygon class="st22" points="383.6,397.8 371.9,403.1 374.4,408.4 385.8,403.1 			"/>
			<path class="st8" d="M318.8,401.7v-3.1c-10.1-0.1-20.2-0.3-30.3-0.4c-0.3,0.3-0.5,0.7-0.5,1.1c0.1,1.1,1.5,1.4,2.5,1.4
				C300,401.1,309.4,401.4,318.8,401.7z"/>
			<path class="st8" d="M359.8,416.7c-0.5,0.3-1,0.8-0.9,1.3c0.1,0.9,1.3,1.2,2.2,1.2c5.9,0.2,15.2,0.4,23.1,0.6
				c2.5,0.1,4.4-1.7,4.9-3.9C379.2,416.3,369.5,416.6,359.8,416.7z"/>
			<g>
				<g>
					<path class="st17" d="M357.4,218.4c-0.4,3.2,0,8.2,2.2,10.6c1.8,2,4.7,2.6,7.3,2.1c2.6-0.5,4.9-1.9,7.1-3.4
						c3.7-2.7,6.9-5.9,9.6-9.6c2.5-3.4,4.6-7.7,3.3-11.8c-0.9-3-3.5-5.2-6.3-6.5c-3.4-1.7-7.3-2.4-11-1.4
						C360.3,200.7,358.4,210.4,357.4,218.4z"/>
					<path class="st15" d="M381.2,216.9c0.6-2.8,0.1-5.9-1.6-8.3c-1.6-2.4-4.2-4.1-7.1-4.5c-2.6-0.4-5.2,0.1-7.7,0.5
						c-2.6,0.4-5.3,0.5-7.6-0.6c-2.1-1-3.6-2.8-4.5-4.9c-0.9-2.1-1.1-4.4-1.1-6.7c0-1.6,0.2-3.2,0.8-4.7c0.6-1.5,1.6-2.8,3.1-3.6
						c1.9-1,4.4-0.7,6.1,0.7c1.6,1.4,2.3,3.8,1.6,5.9c1.8-2.6,4.4-4.5,7.3-5.7c1.8-0.7,4-1,5.4,0.3c0.9,0.9,1.1,2.2,0.9,3.4
						c-0.2,1.2-0.8,2.3-1.4,3.3c2.7-2.7,6.8-4,10.6-3.4c0.4,0.1,0.9,0.2,1.2,0.5c0.5,0.5,0.4,1.4,0.1,2.1c-0.7,2-2.2,3.7-4.1,4.7
						c2.8,1.1,5.9,2.3,7.6,4.8c1.4,1.9,1.8,4.4,1.6,6.8c-0.4,4.4-2.8,8.7-6.6,11c-0.9,0.5-1.9,1-2.9,0.8
						C381.9,219.3,381,217.9,381.2,216.9z"/>
					<path class="st17" d="M383,215c0.6-0.3,1.3-0.5,2-0.3c0.7,0.2,1.2,1,1.3,1.7c0.1,0.8-0.1,1.5-0.4,2.2c-1,2.4-2.9,4.4-5.3,5.4
						c-0.5,0.2-1.1,0.4-1.5,0.1c-1.2-0.8-0.8-4.1-0.3-5.3C379.6,217.2,381.4,215.7,383,215z"/>
				</g>
				<path class="st15" d="M370.7,212.7c-0.6,1.5-1.7,2.4-2.5,2.1c-0.8-0.3-1-1.8-0.4-3.2c0.6-1.5,1.7-2.4,2.5-2.1
					C371.1,209.8,371.2,211.3,370.7,212.7z"/>
				<path class="st15" d="M362.4,212.7c-0.6,1.5-1.7,2.4-2.5,2.1c-0.8-0.3-1-1.8-0.4-3.2c0.6-1.5,1.7-2.4,2.5-2.1
					C362.8,209.8,363,211.3,362.4,212.7z"/>
				<path class="st23" d="M361.2,217.8c-0.3,0.1-0.7,0.2-1,0.4c-0.3,0.2-0.5,0.5-0.5,0.9c0.1,0.4,0.4,0.6,0.7,0.7
					c1.1,0.4,2.4,0.1,3.2-0.7s1.1-2.1,0.9-3.2c-0.1-0.3-0.3-1-0.7-0.7c-0.3,0.2-0.4,0.9-0.6,1.2C362.8,217,362,217.5,361.2,217.8z"
					/>
				<g>
					<path class="st23" d="M366.7,223.9c-0.3,0-0.6,0-0.9-0.1c-0.3-0.1-0.4-0.3-0.4-0.6c0.1-0.3,0.3-0.4,0.6-0.4
						c0.8,0.2,1.8,0,2.5-0.5c0.7-0.5,1.2-1.3,1.4-2.1c0-0.3,0.3-0.5,0.6-0.4c0.3,0,0.5,0.3,0.4,0.6c-0.2,1.1-0.9,2.2-1.8,2.8
						C368.4,223.6,367.6,223.9,366.7,223.9z"/>
				</g>
			</g>
		</g>
		<path class="st20" d="M307.7,143.4c-2.3,2.5-7.1,5.7-10.4,6.8c-8,12.6-1.8,14.2,4.8,10.6c2.6-1.4,5.2-2.8,7.8-4.3
			c0.4-0.2,0.9-0.5,1.1-0.9c0.4-0.6,0.1-1.4-0.1-2.1C309.7,150.3,310.2,145.6,307.7,143.4z"/>
		<path class="st17" d="M277.2,247.1c-1.6,2.3-3.1,4.7-4.3,7.2c-0.3,0.5-0.5,1.1-0.4,1.7c0.2,0.5,0.7,0.9,1.2,1c0.5,0.1,1.1,0,1.7,0
			c-0.8,2.8-1.8,7.2-1.7,7.9c0.1,0.6,0.6,1.3,1.3,1.3c0.8,0.1,3-3,4.7-6c1.3-0.5,2.6-1.1,3.7-1.8c1.1-0.8,2.1-1.8,2.5-3.1
			c0.6-1.9-0.1-4.1-1.2-5.8c-0.7-1-1.6-2-2.7-2.6C280.9,246.1,278.5,246.8,277.2,247.1z"/>
		<path class="st6" d="M306.3,165.4c1.8,28.9-7.8,60.5-20.9,86.5c-3.4,0.4-6.5,0.1-9.7-1c1.6-22.7,6.1-45.1,12-67
			c1-3.7,2.1-7.6,4.6-10.5C294.8,170.4,302.8,163.9,306.3,165.4z"/>
		<g>
			<g>
				<path class="st17" d="M320.5,163.8c-2.7,2-7.6,4.3-11.1,3.8c-2.9-0.4-5.2-2.6-6.3-5c-1.1-2.4-1.2-5.2-1-7.8
					c0.3-4.5,1.4-9,3.2-13.2c1.7-3.9,4.4-8,8.9-9.1c3.3-0.8,6.9,0.2,9.8,1.8c3.6,2,6.6,5,7.9,8.6C335.2,152,327.3,158.7,320.5,163.8
					z"/>
				<path class="st15" d="M305.1,141.8c5.4,1.6,9.7,0.7,12.4-4.5c1.3,6.2,13.1,27.3,24.4,17.2c-5.6-2.9-5.2-8.7-7.1-14.4
					c-0.7-2.3-1.9-4.5-3.7-6.2c-1.8-1.7-4.5-2.8-7.1-2.4c1.5-0.5,2.9-1.2,4.3-2c0.5-0.3,1-0.6,1-1.1c0-0.7-0.9-1.2-1.7-1.3
					c-2-0.3-4.1,0.2-5.6,1.4c-0.5-2.1-2-3.9-3.9-5.1c-0.5-0.3-1-0.5-1.6-0.6c-0.6,0-1.2,0.1-1.5,0.6c-0.3,0.4-0.2,0.9-0.2,1.3
					c0.3,1.7,1.1,3.3,2.3,4.6c-3.8-0.6-7.5,1.4-9.8,4.1c-2.3,2.7-3.4,6.1-4.5,9.4C303.4,142.7,304.5,141.9,305.1,141.8z"/>
				<path class="st17" d="M308.4,140.3c-0.1-0.7-0.3-1.4-0.9-1.8c-0.7-0.5-1.6-0.5-2.4-0.2c-0.8,0.3-1.4,0.9-1.8,1.5
					c-1.6,2.1-2.3,4.8-1.9,7.3c0.1,0.5,0.3,1.1,0.8,1.3c1.5,0.6,4.3-1.5,5.1-2.6C308.4,144.4,308.7,142,308.4,140.3z"/>
			</g>
			<path class="st15" d="M317.9,149.6c-1,1.3-1.2,2.7-0.4,3.2c0.8,0.5,2.2-0.1,3.2-1.4c1-1.3,1.2-2.7,0.4-3.2
				C320.3,147.7,318.9,148.3,317.9,149.6z"/>
			<path class="st15" d="M322.8,156.6c-1,1.3-1.2,2.7-0.4,3.2c0.8,0.5,2.2-0.1,3.2-1.4c1-1.3,1.2-2.7,0.4-3.2
				S323.8,155.3,322.8,156.6z"/>
			<path class="st23" d="M318.8,160.3c0.1,0.3,0.2,0.7,0.2,1s-0.2,0.7-0.5,0.9c-0.4,0.1-0.8,0-1.1-0.2c-1-0.7-1.5-2-1.2-3.1
				c0.3-1.1,1.3-2,2.4-2.5c0.3-0.1,1.1-0.3,1.1,0.2c0,0.3-0.6,0.8-0.7,1.1C318.6,158.5,318.6,159.4,318.8,160.3z"/>
			<g>
				<path class="st23" d="M309.9,158.8c0.2,0.3,0.4,0.5,0.6,0.7c0.2,0.2,0.6,0.2,0.8,0c0.2-0.2,0.2-0.5,0-0.7
					c-0.7-0.6-1.1-1.5-1.1-2.4c0-0.9,0.4-1.7,1.1-2.3c0.2-0.2,0.2-0.5,0-0.7c-0.2-0.2-0.6-0.2-0.8,0c-0.9,0.8-1.5,1.9-1.5,3
					C309.1,157.3,309.4,158.1,309.9,158.8z"/>
			</g>
		</g>
		<g>
			<path class="st15" d="M201.5,358.7c2.3-0.3,4.6-0.6,6.8-0.3c2.3,0.3,4.5,1.5,5.7,3.4c1.4,2.4,1.1,5.4,0.3,8.1
				c-1.4,5.1-3.9,9.9-6.5,14.6c-6,11-12.2,21.8-18.5,32.6c-1.9,0-4.1,0.2-5.9-0.4c-1.8-0.6-3.5-1.9-4-3.8c-0.4-1.3-0.1-2.7,0.2-4
				c2.3-11.7,4.6-23.4,6.9-35.1c0.7-3.8,1.5-7.7,3.9-10.7C192.7,360,198.2,356.9,201.5,358.7z"/>
			<path class="st21" d="M209.5,381.5c-0.2-0.4-0.5-0.7-0.6-1.1c-2.4-4.6-3.8-9.6-4.2-14.8c-0.2-2.5-0.1-4.9,0.2-7.4
				c-1.1,0.1-2.2,0.2-3.3,0.4c-0.5-0.3-1-0.4-1.6-0.5c-1.9,0.5-3.8,1-5.6,1.5c-1.6,0.9-3,2.1-4,3.4c-1.7,2.2-2.6,4.8-3.2,7.4
				c1.4,1.9,2.7,3.9,4.1,5.8c3.8,5.4,8.2,10.3,13,14.7c1.2-2.2,2.4-4.4,3.6-6.6C208.4,383.5,208.9,382.5,209.5,381.5z"/>
			<path class="st21" d="M201.9,388.3c-2-3.3-4.1-6.6-6.6-9.5c-2.2-2.5-5.5-4.9-8.6-3.9c-0.1,0-0.3,0.1-0.4,0.2
				c-1.1,5.6-2.2,11.2-3.3,16.9c0.6,0.2,1.1,0.3,1.6,0.5c3.5,1.7,6.1,5.1,7.6,8.7c1,2.5,1.6,5.1,1.9,7.7c3.3-5.7,6.6-11.5,9.8-17.3
				C203.3,390.5,202.6,389.4,201.9,388.3z"/>
			<path class="st4" d="M132.8,318.2c14.2,16.3,30.4,30.8,48.2,43c-1.7,2.1-3.6,4.5-6.3,4.8c-2.2,0.3-4.3-0.9-6.3-2
				c-8.9-5-17.9-10.2-25-17.4C136.3,339.3,132.2,328.4,132.8,318.2z"/>
			<path class="st5" d="M132.8,318.2c-0.6,10.2,3.5,21.1,10.6,28.4c2.3,2.3,4.8,4.4,7.3,6.4c0.1-1.9,0.1-3.9,0-5.8
				c-0.1-3.6-0.3-7.2-0.6-10.8C144.1,330.6,138.3,324.5,132.8,318.2z"/>
			<path class="st4" d="M116.2,313.6c-4.9,1.9-9.8,3.8-14.6,5.9c-1.8,0.8-3.6,1.7-4.6,3.2c-1.3,2-0.6,4.5,0.2,6.7
				c6.1,18.6,13,37,20.6,55.3c0.5,1.1,6.9,17.1,8.1,17.3c6.6,1,8-13.9,14.7-14.4c1.8-0.1,3.7-0.4,5.1-1.3c1.8-1.2,2.4-3.2,2.9-5.1
				c2.1-8.6-5.9-51.9-11.3-60.1C132,313,126.1,309.9,116.2,313.6z"/>
			<path class="st5" d="M145.9,368c0.8,0.3,1.8,0.5,2.6,0.5c-0.4-3.8-1-8.1-1.8-12.6c-4.4-0.6-8.7-1.8-12.9-3.4
				c-2.5-1-4.9-2.1-7.2-3.3c-8-4.2-15.2-9.8-22-15.7c2.6,4.9,5.3,9.8,9,14c3.3,3.7,7.4,6.6,11.5,9.4
				C131.8,361.3,138.5,365.4,145.9,368z"/>
			<path class="st20" d="M120.5,304.8c-0.9,3.8-1,7.8-0.4,11.6c0.3,1.9-1.2,3.6-3.2,3.5c-1.5-0.1-3.1-0.3-4.6-0.7
				c-0.6-0.1-1.2-0.3-1.6-0.7c-0.6-0.6-0.8-1.4-0.9-2.3c-0.6-3.7-1.2-7.5-1.9-11.2c-0.2-1.1-0.3-2.2,0.2-3.1
				c0.7-1.3,2.4-1.5,3.9-1.6c1.6-0.1,3.2,0,4.7,0.7C118.1,301.6,120.9,303.3,120.5,304.8z"/>
			<g>
				<path class="st17" d="M131.3,295.3c0.9,3.3,1.3,8.7-0.4,11.8c-1.4,2.5-4.3,3.9-7,4.1c-2.7,0.2-5.3-0.7-7.7-1.8
					c-4.1-1.9-7.9-4.5-11.2-7.7c-3.1-3-5.9-7-5.3-11.6c0.4-3.4,2.7-6.3,5.2-8.5c3.1-2.6,7-4.4,10.8-4.3
					C125.5,277.4,129,287.1,131.3,295.3z"/>
				<path class="st15" d="M117.1,292.7c0.8,1.4,2.1,2.1,2.8,1.6c0.7-0.5,0.7-2.1-0.1-3.5c-0.8-1.4-2.1-2.1-2.8-1.6
					C116.2,289.7,116.3,291.3,117.1,292.7z"/>
				<path class="st15" d="M125.4,290.6c0.8,1.4,2.1,2.1,2.8,1.6c0.7-0.5,0.7-2.1-0.1-3.5c-0.8-1.4-2.1-2.1-2.8-1.6
					S124.6,289.2,125.4,290.6z"/>
				<path class="st23" d="M127.4,295.6c0.4,0,0.7,0,1,0.2c0.3,0.1,0.6,0.4,0.6,0.8c0,0.4-0.3,0.7-0.6,0.9c-1,0.7-2.4,0.7-3.3,0
					c-0.9-0.7-1.5-1.9-1.4-3.2c0-0.4,0.1-1.1,0.6-1c0.3,0.1,0.5,0.8,0.8,1.1C125.7,295.1,126.5,295.5,127.4,295.6z"/>
				<g>
					<path class="st23" d="M122.8,303.4c0.3-0.1,0.6-0.2,0.9-0.3c0.3-0.1,0.4-0.5,0.3-0.7c-0.1-0.3-0.4-0.4-0.7-0.2
						c-0.8,0.4-1.8,0.5-2.6,0.2c-0.8-0.3-1.5-1-1.8-1.9c-0.1-0.3-0.4-0.4-0.6-0.3c-0.3,0.1-0.4,0.4-0.3,0.7c0.4,1.1,1.2,2.1,2.3,2.5
						C121.1,303.6,122,303.6,122.8,303.4z"/>
				</g>
				<path class="st15" d="M105.9,302.3c1.7-2,2.6-4.6,2.7-7.2c0.1-2.6-0.6-5.3-2.1-7.4c5.8-0.8,11.3-2.3,16.8-4.3
					c2.4-0.9,4.9-2,6-4.3c0.8-1.7,0.8-3.6,0.4-5.5c-1.3-5.5-5.4-9.8-9.8-13.3c0.8,2.3,1.5,4.6,2.3,7c-2.2-2.3-4.8-4.2-7.6-5.6
					c1.5,3.1,2.8,6.4,3.7,9.8c-5.4-0.5-11.1,0.1-15.8,2.7c-4.8,2.6-8.4,7.5-8.5,13c0,3.4,1.3,6.7,3.4,9.3
					C99.3,299.1,102.8,300.8,105.9,302.3z"/>
				<path class="st17" d="M105,298.2c-0.7-0.2-1.4-0.2-2,0.2c-0.7,0.4-1.1,1.3-1,2.2c0,0.8,0.4,1.6,0.8,2.3c1.4,2.3,3.6,3.9,6.2,4.4
					c0.5,0.1,1.1,0.1,1.5-0.3c1.1-1.1,0.2-4.6-0.6-5.7C108.9,299.6,106.7,298.6,105,298.2z"/>
			</g>
			<path class="st5" d="M105.4,352.8c7.1,5.8,14.6,11.1,22.8,15.1c6.6,3.3,13.6,5.7,20.8,7c-0.1-2.7-0.4-6-0.9-9.6
				c-3.2-1.1-6.4-2.4-9.5-3.7c-13.9-6-26.9-14-38.6-23.7C101.8,342.8,103.5,347.8,105.4,352.8z"/>
			<path class="st4" d="M111.7,331.6c2.1,8.8,9.7,16.2,18.6,20.9c9,4.7,19.3,7.1,29.6,9c0.6,0.9,1,1.7,1.2,2.7c0.2,1-0.1,2.2-1,2.8
				c-0.8,0.5-1.8,0.6-2.8,0.6c-13.1,0.2-26.2-3.2-37-9.7c-10.7-6.5-18.9-15.9-23.2-26.4c-0.6-1.6-1.2-3.2-1.1-4.9
				c0.1-1.7,0.8-3.4,2.4-4.4c2.6-1.7,6.5-0.8,8.8,1.2C109.6,325.2,111.1,328.9,111.7,331.6z"/>
			<path class="st24" d="M209.9,349.5c0.4,1.9,0.4,7.2,0.7,9.6c-18.2,6.6-37.2,9.2-56.7,14.6c-3.1,0.9-6.2,1.7-9.2,2.6
				c-1.1,0.3-2.4,0.6-3.4,0.1c-1-0.5-1.3-2.3-0.2-2.8c19.8-8.1,38.8-18.2,59.1-24.9c1.5-0.5,3.1-1,4.7-1
				C206.5,347.7,209.5,347.9,209.9,349.5z"/>
			<g>
				<path class="st24" d="M163.8,328.2l47.2-7c2.4-0.3,4.4,1.7,3.9,4.1c-2.1,11.2-3.5,22.4-4.3,33.8c-16.7,2.2-32.7,4.2-52,7.2
					c1.3-13,1.9-23.4,2.2-34.7C160.9,329.9,162.1,328.4,163.8,328.2z"/>
				<path class="st25" d="M194.4,344.6c-0.6,3.2-3.2,5.5-5.9,5c-2.7-0.5-4.5-3.5-3.9-6.7c0.6-3.2,3.2-5.5,5.9-5
					C193.2,338.4,194.9,341.4,194.4,344.6z"/>
			</g>
			<path class="st15" d="M131.3,407.3c5.7,2.1,12.7,1.5,18.5-0.4c13.4-4.4,24.1-14.4,34.3-24.2c7.1,10.2,15.6,20,22.7,30.2
				c1.5,2.2,3.2,4.5,5.7,5.4c2.5,1,8.9-6.7,8.6-8.8c-0.3-2-1.3-3.9-2.2-5.7c-5.9-11-12.6-21.5-19.7-31.8c-2.7-3.9-5.7-8-10.2-9.4
				c-4.7-1.5-9.7,0.4-14.3,2.1c-14.8,5.6-26.8,7.4-43.2,12.5C112.4,383.2,122,403.9,131.3,407.3z"/>
			<path class="st12" d="M240.6,414.6c0.6,0.1,1.4,0.4,1.6,1c0.2,0.8-0.7,1.4-1.4,1.7c-7.4,3.1-15.4,4.2-23.3,5.3
				c-1,0.1-2,0.3-3-0.2c-1.1-0.5-1.7-1.6-2.1-2.7c-0.5-1.1-0.9-2.3-0.7-3.5c0.3-1.7,1.6-2.9,3.1-3.7c1.1-0.6,3-1.8,4.3-1.9
				c1.4-0.1,3.2,0.6,4.6,0.9c3.6,0.6,7.3,1.3,10.9,2C236.6,413.8,238.6,414.2,240.6,414.6z"/>
			<path class="st12" d="M176.8,418c-0.3,1.1-0.6,2.3-0.1,3.3c0.4,0.9,1.3,1.6,2.2,1.9c0.9,0.3,2,0.4,3,0.4c5.3,0.2,10.7,0.2,16,0.2
				c1.5,0,3,0,4.5-0.3c0.8-0.1,1.8-0.6,1.7-1.5c-0.1-0.6-0.7-0.9-1.2-1.2c-4-1.8-8.1-3.5-12.2-5.1c-2.1-0.8-4.2-1.6-6.3-2.3
				c-1.2-0.4-3.5-1.7-4.8-1.2C178.1,412.9,177.3,416.5,176.8,418z"/>
		</g>
	</g>
</g>
<g id="DESIGNED_BY_FREEPIK">
	<g>
		<g id="XMLID_319_">
			<g id="XMLID_338_">
				<path id="XMLID_346_" d="M260.1,466c-0.4,0.4-0.8,0.9-1.1,1.5l-0.5-0.2c-0.1-0.3-0.3-0.5-0.7-0.5c-0.3,0-0.6,0.3-0.5,0.7
					s0.3,0.6,0.7,0.5c0.1,0,0.1,0,0.2-0.1l0.5,0.2c-0.3,0.6-0.4,1.1-0.5,1.7l0.7,0.1c0.2-1.3,0.8-2.5,1.8-3.5L260.1,466z"/>
				<path id="XMLID_345_" d="M265.6,463.7c-0.2,0-0.3,0-0.5,0l-0.1-0.6c0.2-0.1,0.3-0.4,0.3-0.6c0-0.4-0.4-0.7-0.8-0.6
					s-0.7,0.4-0.6,0.8c0,0.3,0.2,0.5,0.4,0.6l0.1,0.6c-0.7,0.1-1.4,0.3-2.1,0.6l0.3,0.7c0.9-0.4,1.9-0.7,3-0.7c0.5,0,1,0.1,1.5,0.2
					l0.2-0.7C266.7,463.7,266.1,463.7,265.6,463.7z"/>
				<path id="XMLID_344_" d="M272.2,466.2c0.3,0,0.6-0.3,0.5-0.7c0-0.3-0.3-0.6-0.7-0.5c-0.3,0-0.5,0.3-0.5,0.6l-0.4,0.4
					c-0.4-0.4-0.9-0.8-1.4-1.1l-0.4,0.6c1.1,0.7,2,1.7,2.6,2.9l0.7-0.3c-0.3-0.6-0.6-1.1-0.9-1.5l0.4-0.4
					C272.1,466.2,272.1,466.2,272.2,466.2z"/>
				<path id="XMLID_343_" d="M265,473.9c-0.4,0-0.8,0-1.2,0c-0.9,0-1.7-0.1-2.5-0.2c-0.4-0.1-0.8-0.2-1.3-0.3c1,1.9,3.1,3.1,5.4,3.1
					c2.9,0,5.3-1.9,5.9-4.5c-0.7,0.4-1.5,0.8-2.5,1.1C267.8,473.6,266.5,473.8,265,473.9z"/>
				<path id="XMLID_339_" d="M265.6,465.2c-3.4,0-6.1,2.7-6.1,5.9c0,0.4,0,0.8,0.1,1.3c0.7,0.5,2.7,0.9,5.3,0.7
					c2.9-0.2,5.3-1,6.7-2.2c0-0.2,0-0.4,0-0.6C271.2,467.4,268.7,465.2,265.6,465.2z M263.4,471.7c-1,0-1.8-0.8-1.8-1.8
					c0-1,0.8-1.8,1.8-1.8c1,0,1.8,0.8,1.8,1.8C265.3,470.9,264.5,471.7,263.4,471.7z M268.2,470.8c-0.8,0-1.4-0.6-1.4-1.4
					s0.6-1.4,1.4-1.4c0.8,0,1.4,0.6,1.4,1.4S268.9,470.8,268.2,470.8z"/>
			</g>
			<path id="XMLID_336_" d="M281.6,467.1c-0.3-0.1-0.8-0.3-1.4-0.2c-0.6,0.1-0.8,0.3-0.8,1v0.9h2.2v1.7h-2.2v5.5h-1.9v-5.5h-1.3
				v-1.7h1.3v-0.9c0-1.7,0.9-2.8,2.6-2.8c0.6,0,1.2,0.1,1.6,0.3L281.6,467.1z"/>
			<path id="XMLID_334_" d="M286.3,470.4c-0.2,0-0.4,0-0.5,0c-0.9,0-1.5,0.5-1.5,1.6v3.9h-1.9v-7.2h1.9v0.8c0.5-0.7,1.1-1,2-1
				c0.4,0,0.8,0.1,1.1,0.3L286.3,470.4z"/>
			<path id="XMLID_331_" d="M294,472.3c0,0.2,0,0.5,0,0.7h-5.1c0.2,1,0.9,1.5,1.8,1.5c0.6,0,1.3-0.3,1.8-0.7l1.1,1.2
				c-0.8,0.7-1.9,1.1-3.1,1.1c-2.2,0-3.7-1.5-3.7-3.8c0-2.3,1.5-3.8,3.6-3.8C292.5,468.5,294,470,294,472.3z M288.9,471.6h3.2
				c-0.2-0.9-0.7-1.4-1.6-1.4C289.6,470.2,289,470.7,288.9,471.6z"/>
			<path id="XMLID_328_" d="M301.6,472.3c0,0.2,0,0.5,0,0.7h-5.1c0.2,1,0.9,1.5,1.8,1.5c0.6,0,1.3-0.3,1.8-0.7l1.1,1.2
				c-0.8,0.7-1.9,1.1-3.1,1.1c-2.2,0-3.7-1.5-3.7-3.8c0-2.3,1.5-3.8,3.6-3.8C300.2,468.5,301.6,470,301.6,472.3z M296.5,471.6h3.2
				c-0.2-0.9-0.7-1.4-1.6-1.4C297.2,470.2,296.7,470.7,296.5,471.6z"/>
			<path id="XMLID_325_" d="M310,472.3c0,2.2-1.5,3.8-3.5,3.8c-1,0-1.6-0.4-2.1-0.9v3.7h-1.9v-10.1h1.9v0.8c0.5-0.6,1.2-1,2.1-1
				C308.5,468.5,310,470.1,310,472.3z M304.3,472.3c0,1.1,0.7,2,1.8,2c1.1,0,1.9-0.9,1.9-2c0-1.1-0.7-2-1.9-2
				C305,470.3,304.3,471.1,304.3,472.3z"/>
			<path id="XMLID_322_" d="M313.1,466.3c0,0.7-0.5,1.2-1.2,1.2c-0.7,0-1.2-0.5-1.2-1.2c0-0.7,0.5-1.2,1.2-1.2
				C312.5,465.1,313.1,465.6,313.1,466.3z M312.8,475.9h-1.9v-7.2h1.9V475.9z"/>
			<path id="XMLID_320_" d="M316,471.2l2.7-2.6h2.4l-3.5,3.4l3.5,3.8h-2.4L316,473v2.9h-1.9v-10.7h1.9V471.2z"/>
		</g>
		<g>
			<path d="M184.4,475.8v-1.1c-0.5,0.7-1.4,1.2-2.4,1.2c-1.8,0-3.1-1.4-3.1-3.7c0-2.3,1.3-3.7,3.1-3.7c1,0,1.8,0.5,2.4,1.2V466h1.1
				v9.8H184.4z M184.4,473.9v-3.2c-0.4-0.6-1.2-1.1-2.1-1.1c-1.4,0-2.3,1.2-2.3,2.7c0,1.6,0.8,2.7,2.3,2.7
				C183.2,475,184,474.5,184.4,473.9z"/>
			<path d="M186.9,472.3c0-2.1,1.5-3.7,3.5-3.7c2.1,0,3.4,1.7,3.4,3.8v0.3h-5.7c0.1,1.3,1,2.4,2.5,2.4c0.8,0,1.6-0.3,2.2-0.9
				l0.5,0.7c-0.7,0.7-1.7,1.1-2.8,1.1C188.4,476,186.9,474.5,186.9,472.3z M190.4,469.5c-1.5,0-2.3,1.3-2.3,2.4h4.6
				C192.7,470.8,192,469.5,190.4,469.5z"/>
			<path d="M194.6,474.9l0.6-0.8c0.5,0.5,1.4,1,2.3,1c1.1,0,1.7-0.5,1.7-1.2c0-1.7-4.4-0.7-4.4-3.3c0-1.1,1-2,2.6-2
				c1.2,0,2.1,0.5,2.6,1l-0.5,0.8c-0.4-0.5-1.2-0.9-2.1-0.9c-1,0-1.6,0.5-1.6,1.1c0,1.6,4.4,0.5,4.4,3.3c0,1.2-1,2.1-2.8,2.1
				C196.3,476,195.3,475.6,194.6,474.9z"/>
			<path d="M201.5,467c0-0.4,0.3-0.7,0.7-0.7c0.4,0,0.7,0.3,0.7,0.7c0,0.4-0.3,0.7-0.7,0.7C201.8,467.7,201.5,467.4,201.5,467z
				 M201.7,475.8v-7.1h1.1v7.1H201.7z"/>
			<path d="M204.6,477.6l0.6-0.8c0.6,0.7,1.3,1,2.3,1c1.2,0,2.3-0.6,2.3-2.1v-1c-0.5,0.7-1.4,1.3-2.4,1.3c-1.8,0-3.1-1.4-3.1-3.7
				c0-2.3,1.3-3.7,3.1-3.7c1,0,1.8,0.5,2.4,1.2v-1.1h1.1v6.9c0,2.3-1.6,3.1-3.4,3.1C206.2,478.7,205.4,478.4,204.6,477.6z
				 M209.7,473.8v-3.1c-0.4-0.6-1.2-1.1-2.1-1.1c-1.4,0-2.3,1.1-2.3,2.7c0,1.6,0.8,2.7,2.3,2.7C208.5,474.9,209.3,474.4,209.7,473.8
				z"/>
			<path d="M217.4,475.8v-4.6c0-1.2-0.6-1.6-1.6-1.6c-0.9,0-1.7,0.5-2.1,1.1v5.2h-1.1v-7.1h1.1v1c0.5-0.6,1.5-1.2,2.5-1.2
				c1.5,0,2.3,0.7,2.3,2.3v5H217.4z"/>
			<path d="M219.9,472.3c0-2.1,1.5-3.7,3.5-3.7c2.1,0,3.4,1.7,3.4,3.8v0.3h-5.7c0.1,1.3,1,2.4,2.5,2.4c0.8,0,1.6-0.3,2.2-0.9
				l0.5,0.7c-0.7,0.7-1.7,1.1-2.8,1.1C221.4,476,219.9,474.5,219.9,472.3z M223.4,469.5c-1.5,0-2.3,1.3-2.3,2.4h4.6
				C225.7,470.8,225,469.5,223.4,469.5z"/>
			<path d="M233.4,475.8v-1.1c-0.5,0.7-1.4,1.2-2.4,1.2c-1.8,0-3.1-1.4-3.1-3.7c0-2.3,1.3-3.7,3.1-3.7c1,0,1.8,0.5,2.4,1.2V466h1.1
				v9.8H233.4z M233.4,473.9v-3.2c-0.4-0.6-1.2-1.1-2.1-1.1c-1.4,0-2.3,1.2-2.3,2.7c0,1.6,0.8,2.7,2.3,2.7
				C232.1,475,233,474.5,233.4,473.9z"/>
			<path d="M239.7,475.8V466h1.1v3.8c0.6-0.8,1.4-1.2,2.4-1.2c1.8,0,3.1,1.5,3.1,3.7c0,2.3-1.3,3.7-3.1,3.7c-1,0-1.9-0.5-2.4-1.2
				v1.1H239.7z M242.9,475c1.4,0,2.3-1.2,2.3-2.7c0-1.6-0.8-2.7-2.3-2.7c-0.9,0-1.7,0.5-2.1,1.1v3.2C241.2,474.5,242,475,242.9,475z
				"/>
			<path d="M247.5,477.6c0.2,0.1,0.4,0.1,0.6,0.1c0.5,0,0.8-0.2,1.1-0.7l0.5-1.1l-3-7.1h1.2l2.4,5.8l2.3-5.8h1.2l-3.5,8.5
				c-0.4,1-1.1,1.4-2.1,1.4c-0.2,0-0.6,0-0.8-0.1L247.5,477.6z"/>
		</g>
	</g>
</g>
</svg>
